<svg id="Layer_1" data-name="Layer 1" xmlns="http://www.w3.org/2000/svg" viewBox="0 0 146.38 165.95"><defs><style>.cls-1{fill:#3a3a3a;}.cls-2{fill:#5b5c5c;}.cls-3{fill:#818182;}.cls-4{fill:#231f20;}</style></defs><title>Untitled-3</title><path classNamecls-1" d="M143.82,118.85c0,25.12-28.25,41.85-68.46,41.85S2.55,138.37,2.55,138.37c0-2.84.42-32.4,1.22-35.1C10,82.13,39.7,66.12,75.36,66.12c33.57,0,58.8,14.19,66.22,33.48C143.05,103.42,143.82,114.7,143.82,118.85Z" transform="translate(-0.53 -1.29)"/><path classNamecls-2" d="M143.82,87.65c0,25.12-28.25,41.85-68.46,41.85S2.55,107.17,2.55,107.17c0-2.84.42-32.4,1.22-35.1C10,50.92,39.7,34.91,75.36,34.91c33.57,0,58.8,14.19,66.22,33.48C143.05,72.22,143.82,83.5,143.82,87.65Z" transform="translate(-0.53 -1.29)"/><path classNamecls-3" d="M143.82,57.9c0,25.12-28.25,41.85-68.46,41.85S2.55,77.42,2.55,77.42c0-2.84.42-32.4,1.22-35.1C10,21.17,39.7,5.16,75.36,5.16c33.57,0,58.8,14.19,66.22,33.48C143.05,42.47,143.82,53.74,143.82,57.9Z" transform="translate(-0.53 -1.29)"/><path classNamecls-4" d="M123.73,10.57c-13.45-6-31.21-9.29-50-9.29s-36.55,3.3-50,9.29C8.76,17.23.53,26.65,0.53,37.09v94.34c0,10.44,8.23,19.86,23.18,26.52,13.45,6,31.21,9.29,50,9.29s36.56-3.3,50-9.29c14.95-6.66,23.18-16.07,23.18-26.52V37.09C146.91,26.65,138.68,17.23,123.73,10.57ZM28.43,21.18c12-5.34,28.08-8.28,45.29-8.28S107,15.84,119,21.18c10.2,4.54,16.29,10.49,16.29,15.91S129.21,48.46,119,53c-12,5.34-28.08,8.28-45.29,8.28S40.43,58.34,28.43,53c-10.2-4.54-16.29-10.49-16.29-15.91S18.23,25.72,28.43,21.18ZM12.14,85.12c11.87,10.1,34.74,16.8,61.58,16.8s49.71-6.7,61.58-16.8V106c-6.92,10.47-29.93,19.87-61.58,19.87S19.06,116.48,12.14,106V85.12ZM135.3,56.94V76.71c-7.76,10.35-30.57,19.41-61.58,19.41S19.9,87.06,12.14,76.71V56.94l0.24,0.17,0.75,0.55L13.56,58l0.85,0.58,0.37,0.25L16,59.59l0.08,0,1.23,0.74,0.44,0.25,0.94,0.52,0.52,0.28,0.93,0.48,0.53,0.27,1,0.5,0.47,0.23,1.53,0.7c11.77,5.24,26.84,8.42,43,9.14q3.47,0.15,7,.15t7-.15c16.17-.71,31.24-3.89,43-9.14l1.53-.7,0.47-.23,1-.5,0.52-.27,0.93-.49,0.51-.28,0.94-.52,0.44-.25,1.23-.73,0.09-.05,1.26-.8,0.37-.25,0.84-.57,0.43-.31,0.74-.54ZM119,147.34c-12,5.34-28.08,8.29-45.29,8.29s-33.29-2.94-45.29-8.29c-10.2-4.54-16.29-10.49-16.29-15.91V116.49c12.16,10,34.94,16.64,61.58,16.64s49.42-6.61,61.58-16.64v14.94C135.3,136.85,129.21,142.8,119,147.34Z" transform="translate(-0.53 -1.29)"/><path classNamecls-4" d="M113.52,74.42v5.81c5.44-.36,13.91-3.75,16.33-6.17V68.25C126.22,71.16,117.27,74.79,113.52,74.42Z" transform="translate(-0.53 -1.29)"/><path classNamecls-4" d="M129.84,97.28c-3.63,2.9-12.58,6.53-16.33,6.17v5.81c5.44-.36,13.91-3.75,16.33-6.17V97.28Z" transform="translate(-0.53 -1.29)"/><path classNamecls-4" d="M113.52,132.48v5.81c5.44-.36,13.91-3.75,16.33-6.17v-5.81C126.22,129.21,117.27,132.84,113.52,132.48Z" transform="translate(-0.53 -1.29)"/></svg>