<svg id="Layer_1" data-name="Layer 1" xmlns="http://www.w3.org/2000/svg" viewBox="0 0 224.83 104.39"><defs><style>.cls-1{fill:#2bb673;}</style></defs><title>Untitled-5</title><g id="g3175"><path id="path3139" class="cls-1" d="M23.85,11.14h0a6.21,6.21,0,0,0-4.46-1.87A6.12,6.12,0,0,0,15,11.14h0a6.45,6.45,0,0,0-1.83,4.53,6.38,6.38,0,0,0,1.83,4.52l0,0a6.14,6.14,0,0,0,4.43,1.85,6.23,6.23,0,0,0,4.46-1.85v0a6.36,6.36,0,0,0,1.83-4.52,6.42,6.42,0,0,0-1.83-4.53h0ZM19.39,98.83h0A6.29,6.29,0,0,0,23.85,97v0a6.36,6.36,0,0,0,1.83-4.51,6.44,6.44,0,0,0-1.83-4.54h0A6.17,6.17,0,0,0,19.39,86,6.08,6.08,0,0,0,15,87.88h0a6.46,6.46,0,0,0-1.83,4.54,6.38,6.38,0,0,0,1.83,4.51l0,0a6.2,6.2,0,0,0,4.43,1.87h0Zm34.3-19.41h0a6.21,6.21,0,0,0,3.83-3l0.12-.23h0a6.4,6.4,0,0,0,.5-4.64,6.31,6.31,0,0,0-2.94-3.9l-0.09-.06A6.27,6.27,0,0,0,46.59,70a6.48,6.48,0,0,0,2.3,8.77h0a6.24,6.24,0,0,0,4.78.62h0ZM25.84,47.48h0a9,9,0,0,0-12.9,0A9.31,9.31,0,0,0,10.29,54a9.42,9.42,0,0,0,2.66,6.58,9,9,0,0,0,12.9,0A9.41,9.41,0,0,0,28.5,54a9.3,9.3,0,0,0-2.66-6.55h0ZM22.21,36.57h0a17.2,17.2,0,0,1,9.47,5h0c0.4,0.41.79,0.85,1.15,1.3l6.29-3.7A13.92,13.92,0,0,1,45.26,22.9l0.11-.07A13.3,13.3,0,0,1,55.56,21.5,13.6,13.6,0,0,1,63.81,28h0a14,14,0,0,1,1.36,10.47,13.69,13.69,0,0,1-6.33,8.39L58,47.34H57.89a13.42,13.42,0,0,1-9.36.87A13.58,13.58,0,0,1,42,44.1l-6.28,3.69A17.86,17.86,0,0,1,36.8,54a18.11,18.11,0,0,1-1.12,6.28L42,64a13.36,13.36,0,0,1,6.58-4.11,13.2,13.2,0,0,1,10.31,1.39L59,61.38h0a13.77,13.77,0,0,1,6.12,8.29,14,14,0,0,1-1.36,10.46l-0.11.23h0v0a13.69,13.69,0,0,1-8.11,6.25,13.46,13.46,0,0,1-10.31-1.38v0A13.92,13.92,0,0,1,39.14,69l-6.29-3.69c-0.36.45-.75,0.87-1.15,1.28l0,0a17.1,17.1,0,0,1-9.47,4.95V78.9A13.42,13.42,0,0,1,29,82.65h0v0a13.94,13.94,0,0,1,0,19.5v0h0a13.41,13.41,0,0,1-19.19,0h0v0a13.92,13.92,0,0,1,0-19.5v0h0a13.44,13.44,0,0,1,6.77-3.75V71.51a17.06,17.06,0,0,1-9.46-4.95l0,0a17.87,17.87,0,0,1,0-25h0a17.17,17.17,0,0,1,9.46-5V29.21A13.67,13.67,0,0,1,9.8,25.45h0v0a13.95,13.95,0,0,1,0-19.51h0A13.39,13.39,0,0,1,29,5.91h0a14,14,0,0,1,0,19.51v0a13.66,13.66,0,0,1-6.78,3.76v7.36Zm35.3-4.91-0.05-.08a6.32,6.32,0,0,0-3.78-2.91,6.21,6.21,0,0,0-4.79.64h0A6.33,6.33,0,0,0,46,33.21a6.51,6.51,0,0,0,.63,4.87l0,0A6.21,6.21,0,0,0,50.42,41a6.07,6.07,0,0,0,4.77-.63l0.08,0a6.39,6.39,0,0,0,2.85-3.85,6.51,6.51,0,0,0-.61-4.87h0" transform="translate(-1.99 -1.85)"/><path id="path3141" class="cls-1" d="M85.4,33.82h7V55.61l10.11-11.38h8.41L98.73,57.41,111,74.13h-8L92.41,59.19V74.13h-7V33.82" transform="translate(-1.99 -1.85)"/><path id="path3143" class="cls-1" d="M119.08,59.3c0,3.71,2.62,9.1,8.94,9.1a8.31,8.31,0,0,0,7.81-4.79A10.44,10.44,0,0,0,137,59.42a9.52,9.52,0,0,0-.81-4.21A8.62,8.62,0,0,0,128,49.94c-5.67,0-8.89,4.68-8.89,9.31v0Zm24.84,14.82h-7v-4.3C135,73.3,131.13,75,127,75c-9.42,0-14.93-7.47-14.93-15.9,0-9.42,6.69-15.85,14.93-15.85,5.35,0,8.62,2.89,9.9,5.29V44.22h7v29.9" transform="translate(-1.99 -1.85)"/><path id="path3145" class="cls-1" d="M151.86,49.72h-3.63v-5.5h3.63V42.54c0-8.89,6.64-9.42,11.67-9.48v5.49c-1.77,0-4.66,0-4.66,4.2v1.47h4.66v5.5h-4.66v24.4h-7V49.72" transform="translate(-1.99 -1.85)"/><path id="path3147" class="cls-1" d="M168.3,33.82h7V55.61l10.12-11.38h8.41L181.63,57.41l12.26,16.72h-8L175.32,59.19V74.13h-7V33.82" transform="translate(-1.99 -1.85)"/><path id="path3149" class="cls-1" d="M202,59.3c0,3.71,2.62,9.1,8.94,9.1a8.31,8.31,0,0,0,7.81-4.79,10.38,10.38,0,0,0,1.13-4.19,9.51,9.51,0,0,0-.81-4.21,8.61,8.61,0,0,0-8.18-5.27c-5.67,0-8.89,4.68-8.89,9.31v0Zm24.84,14.82h-7v-4.3C217.93,73.3,214,75,209.91,75,200.49,75,195,67.58,195,59.15c0-9.42,6.69-15.85,14.93-15.85,5.35,0,8.62,2.89,9.9,5.29V44.22h7v29.9" transform="translate(-1.99 -1.85)"/></g></svg>