<svg id="Layer_1" data-name="Layer 1" xmlns="http://www.w3.org/2000/svg" viewBox="0 0 124.58 212.14"><defs><style>.cls-1,.cls-3{fill:#ffde17;}.cls-2{fill:#231f20;}.cls-3{font-size:27.91px;font-family:Futura;}.cls-4{letter-spacing:1px;}</style></defs><title>Untitled-8</title><path class="cls-1" d="M120.33,62.91c0-13.09-25.3-23.7-56.51-23.7S7.31,49.82,7.31,62.91c0,2.3.11,87,.34,87.84,3.1,11.86,27.07,21.09,56.17,21.09,29.26,0,53.33-9.33,56.22-21.28C120.23,149.77,120.33,65.21,120.33,62.91Z" transform="translate(-1.63 2.35)"/><path class="cls-2" d="M106.48,41.23C95,36.13,79.92,33.32,63.92,33.32s-31.11,2.81-42.56,7.91C8.64,46.89,1.63,54.9,1.63,63.79v80.29c0,8.89,7,16.9,19.73,22.57,11.45,5.1,26.57,7.91,42.56,7.91s31.11-2.81,42.56-7.91C119.2,161,126.21,153,126.21,144.08V63.79C126.21,54.9,119.2,46.89,106.48,41.23Zm9.85,102.86c0,4.61-5.18,9.67-13.87,13.54-10.21,4.55-23.9,7.05-38.54,7.05s-28.33-2.5-38.54-7.05c-8.68-3.87-13.87-8.93-13.87-13.54V80.69l0.2,0.15,0.64,0.47,0.36,0.26L13.44,82l0.31,0.21,1.08,0.69,0.07,0,1.05,0.63,0.37,0.21,0.8,0.44,0.44,0.24,0.79,0.41,0.45,0.23,0.87,0.42,0.4,0.19,1.3,0.6c10,4.46,22.84,7.17,36.61,7.77q2.95,0.13,6,.13t6-.13c13.77-.61,26.59-3.31,36.61-7.77l1.3-.6,0.4-.19,0.87-.43,0.45-.23,0.79-.41,0.44-.23,0.8-.45,0.37-.21,1-.62,0.07,0,1.07-.68,0.32-.21,0.71-.49,0.37-.26,0.63-.46,0.21-.15v63.39ZM102.46,77.33c-10.21,4.55-23.9,7.05-38.54,7.05s-28.33-2.5-38.54-7.05c-8.68-3.87-13.87-8.93-13.87-13.54s5.18-9.67,13.87-13.54c10.21-4.55,23.9-7.05,38.54-7.05s28.33,2.5,38.54,7.05c8.68,3.87,13.87,8.93,13.87,13.54S111.15,73.47,102.46,77.33Z" transform="translate(-1.63 2.35)"/><path class="cls-2" d="M38.48,124.11c4.92-.14,5.42-2.71,5.42-4.85a51.29,51.29,0,0,0-.43-5.56,51.88,51.88,0,0,1-.36-5.63c0-6.7,4.21-9.62,10.84-9.62h2.5v6.06H55.16c-3.21,0-4.35,1.92-4.35,5.06,0,1.28.21,2.57,0.36,4.06a46.76,46.76,0,0,1,.36,4.85c0.07,5.42-2.14,7.41-6.06,8.27v0.14c3.92,0.86,6.13,2.92,6.06,8.34a49.76,49.76,0,0,1-.36,5c-0.14,1.43-.36,2.78-0.36,4,0,3.14,1.07,5.13,4.35,5.13h1.28v6H53.88c-6.34,0-10.76-2.57-10.76-9.7a51.89,51.89,0,0,1,.36-5.63,51.28,51.28,0,0,0,.43-5.56c0-2-.5-4.71-5.42-4.85v-5.49Z" transform="translate(-1.63 2.35)"/><path class="cls-2" d="M93.37,129.6c-4.85.14-5.42,2.85-5.42,4.85a51.28,51.28,0,0,0,.43,5.56,52.56,52.56,0,0,1,.43,5.63c0,7.13-4.42,9.7-10.84,9.7H75.41v-6h1.28c3.28-.07,4.35-2,4.35-5.13a27.6,27.6,0,0,0-.36-4,49.67,49.67,0,0,1-.36-5c-0.07-5.42,2.14-7.49,6.13-8.34v-0.14c-4-.86-6.2-2.85-6.13-8.27a46.67,46.67,0,0,1,.36-4.85,28.53,28.53,0,0,0,.36-4.06c0-3.14-1.14-5-4.35-5.06H75.41V98.45h2.5c6.7,0,10.91,2.92,10.91,9.62a52.55,52.55,0,0,1-.43,5.63,51.29,51.29,0,0,0-.43,5.56c0,2.14.57,4.71,5.42,4.85v5.49Z" transform="translate(-1.63 2.35)"/><text class="cls-3" transform="translate(12.99 24.55)">D<tspan x="12.82" y="0">A</tspan><tspan x="23.75" y="0">T</tspan><tspan x="32.48" y="0">A </tspan><tspan class="cls-4" x="49.63" y="0">L</tspan><tspan x="59.99" y="0">AKE</tspan></text><text class="cls-3" transform="translate(17.93 204.27)">C<tspan x="11.42" y="0">AUTION!</tspan></text></svg>