<svg id="Layer_1" data-name="Layer 1" xmlns="http://www.w3.org/2000/svg" viewBox="0 0 196 81.13"><defs><style>.cls-1{fill:#f27aa0;}.cls-2,.cls-3{fill:none;stroke:#231f20;stroke-miterlimit:10;}.cls-2{stroke-width:3px;}.cls-3{stroke-width:6px;}</style></defs><title>pipe</title><path class="cls-1" d="M184.7,1V0.22H13.7V0.65C5.16,3.2.7,22.13,0.7,40.85s4.46,37.66,13,40.21v0.29h168c9.85,0,15-20.37,15-40.5C196.7,22.88,192.59,4.71,184.7,1Z" transform="translate(-0.7 -0.22)"/><ellipse class="cls-2" cx="181" cy="40.64" rx="12" ry="37.5"/><path class="cls-3" d="M181.7,3.36h0V3.22H16.7V3.5a4,4,0,0,0-1-.14c-6.63,0-12,16.79-12,37.5s5.37,37.5,12,37.5a4,4,0,0,0,1-.14v0.14h165c6.63,0,12-16.79,12-37.5S188.32,3.36,181.7,3.36Z" transform="translate(-0.7 -0.22)"/></svg>